<?xml version="1.0" encoding="UTF-8" standalone="no"?>
<!-- Created with Inkscape (http://www.inkscape.org/) -->

<svg
   xmlns:dc="http://purl.org/dc/elements/1.1/"
   xmlns:cc="http://creativecommons.org/ns#"
   xmlns:rdf="http://www.w3.org/1999/02/22-rdf-syntax-ns#"
   xmlns:svg="http://www.w3.org/2000/svg"
   xmlns="http://www.w3.org/2000/svg"
   xmlns:xlink="http://www.w3.org/1999/xlink"
   xmlns:sodipodi="http://sodipodi.sourceforge.net/DTD/sodipodi-0.dtd"
   xmlns:inkscape="http://www.inkscape.org/namespaces/inkscape"
   version="1.0"
   width="162.5"
   height="162.5"
   id="svg101"
   inkscape:version="0.48.3.1 r9886"
   sodipodi:docname="file.svg">
  <metadata
     id="metadata8">
    <rdf:RDF>
      <cc:Work
         rdf:about="">
        <dc:format>image/svg+xml</dc:format>
        <dc:type
           rdf:resource="http://purl.org/dc/dcmitype/StillImage" />
      </cc:Work>
    </rdf:RDF>
  </metadata>
  <sodipodi:namedview
     pagecolor="#ffffff"
     bordercolor="#666666"
     borderopacity="1"
     objecttolerance="10"
     gridtolerance="10"
     guidetolerance="10"
     inkscape:pageopacity="0"
     inkscape:pageshadow="2"
     inkscape:window-width="1280"
     inkscape:window-height="1000"
     id="namedview6"
     showgrid="false"
     inkscape:zoom="1.4523077"
     inkscape:cx="-117.05508"
     inkscape:cy="81.25"
     inkscape:window-x="0"
     inkscape:window-y="24"
     inkscape:window-maximized="1"
     inkscape:current-layer="svg101" />
  <defs
     id="defs5">
    <inkscape:perspective
       sodipodi:type="inkscape:persp3d"
       inkscape:vp_x="0 : 81.25 : 1"
       inkscape:vp_y="0 : 1000 : 0"
       inkscape:vp_z="162.5 : 81.25 : 1"
       inkscape:persp3d-origin="81.25 : 54.166667 : 1"
       id="perspective10" />
    <inkscape:perspective
       id="perspective2840"
       inkscape:persp3d-origin="0.5 : 0.33333333 : 1"
       inkscape:vp_z="1 : 0.5 : 1"
       inkscape:vp_y="0 : 1000 : 0"
       inkscape:vp_x="0 : 0.5 : 1"
       sodipodi:type="inkscape:persp3d" />
    <linearGradient
       inkscape:collect="always"
       xlink:href="#linearGradient4689"
       id="linearGradient4082"
       gradientUnits="userSpaceOnUse"
       gradientTransform="matrix(1.200851,0,0,1.200851,-174.09341,-122.35229)"
       x1="172.94208"
       y1="77.475983"
       x2="26.670298"
       y2="76.313133" />
    <linearGradient
       id="linearGradient4689">
      <stop
         style="stop-color:#366a96;stop-opacity:1"
         offset="0"
         id="stop4691" />
      <stop
         style="stop-color:#3679b0;stop-opacity:1"
         offset="1"
         id="stop4693" />
    </linearGradient>
    <linearGradient
       inkscape:collect="always"
       xlink:href="#linearGradient4671"
       id="linearGradient4084"
       gradientUnits="userSpaceOnUse"
       gradientTransform="matrix(1.200851,0,0,1.200851,-174.09341,-122.35229)"
       x1="224.23996"
       y1="144.75717"
       x2="-65.308502"
       y2="144.75717" />
    <linearGradient
       id="linearGradient4671">
      <stop
         style="stop-color:#ffc836;stop-opacity:1"
         offset="0"
         id="stop4673" />
      <stop
         style="stop-color:#ffe873;stop-opacity:1"
         offset="1"
         id="stop4675" />
    </linearGradient>
  </defs>
  <path
     style="fill:#000000;stroke:none"
     d="M 116.74473,24.52993 C 107.07846,15.140786 96.652849,7.6194954 88.100633,6.5941158 87.635055,6.5276072 87.15285,6.4888019 86.642932,6.4777217 H 30.357955 c -0.8979,0 -1.784713,0.3491834 -2.416569,0.9976659 -0.626312,0.631855 -0.997665,1.5186701 -0.997665,2.4221111 V 152.61914 c 0,0.89789 0.349183,1.75699 0.997665,2.41102 0.648483,0.64294 1.502042,0.99212 2.416569,0.99212 H 132.14205 c 0.89789,0 1.757,-0.34363 2.40548,-0.99212 0.64847,-0.64849 1.00875,-1.50759 1.00875,-2.41102 V 57.646893 C 135.35674,46.622685 126.72139,34.600812 116.74473,24.52993 z m 11.97199,124.65834 H 33.761104 V 13.295104 h 52.887372 v 0.01108 c 2.305721,-0.138565 4.295509,2.139439 5.819718,7.349471 1.385651,4.960618 1.734826,11.428817 1.729285,15.91277 0.01106,3.286754 -0.149649,5.492704 -0.149649,5.492704 l -0.271586,3.613768 3.635933,0.0388 c 0.01664,0 8.402573,0.09976 16.627773,1.967617 7.90372,1.707117 14.08371,5.110267 14.66014,8.962365 0.0221,0.343642 0.0277,0.687281 0.0221,1.00875 v 91.535832 z"
     id="path2824" />
  <path
     style="fill:#9864ae;fill-opacity:1;fill-rule:evenodd;stroke:#000000;stroke-width:0.59048998;stroke-linecap:butt;stroke-linejoin:miter;stroke-miterlimit:4;stroke-opacity:1;stroke-dasharray:none"
     id="path5723"
     d="M 49.215071,93.122629 79.458174,67.583416 66.443396,56.34762 C 52.021599,64.084645 47.502792,76.401604 49.215071,93.122629 z"
     inkscape:connector-curvature="0" />
  <path
     style="fill:#35a328;fill-opacity:1;fill-rule:evenodd;stroke:#000000;stroke-width:0.59048998;stroke-linecap:butt;stroke-linejoin:miter;stroke-miterlimit:4;stroke-opacity:1;stroke-dasharray:none"
     id="path6234"
     d="m 113.45358,99.919775 -43.827774,0.01413 -0.166753,16.491395 c 15.525777,4.16406 30.915647,3.33883 43.994677,-16.507262 z"
     inkscape:connector-curvature="0" />
  <path
     style="fill:#1d58a6;fill-opacity:1;fill-rule:evenodd;stroke:#000000;stroke-width:0.59048998;stroke-linecap:butt;stroke-linejoin:miter;stroke-miterlimit:4;stroke-opacity:1;stroke-dasharray:none"
     id="path6236"
     d="M 50.280787,98.481814 63.598273,86.684209 63.901077,113.3692 C 57.812889,111.12506 53.305655,103.76651 50.28093,98.481814 z"
     inkscape:connector-curvature="0" />
  <path
     style="fill:#f93538;fill-opacity:1;fill-rule:evenodd;stroke:#000000;stroke-width:0.59048998;stroke-linecap:butt;stroke-linejoin:miter;stroke-miterlimit:4;stroke-opacity:1;stroke-dasharray:none"
     id="path6238"
     d="m 71.286076,54.100451 c 9.327568,-2.875923 18.387481,-2.097184 26.332306,1.040821 L 98.223707,76.852928 71.286076,54.100451 z"
     inkscape:connector-curvature="0" />
  <path
     style="fill:#fe7d08;fill-opacity:1;fill-rule:evenodd;stroke:#000000;stroke-width:0.59048998;stroke-linecap:butt;stroke-linejoin:miter;stroke-miterlimit:4;stroke-opacity:1;stroke-dasharray:none"
     id="path6240"
     d="m 102.76377,95.953767 -0.30279,-35.673626 c 13.70097,10.478741 13.05936,20.554862 12.10678,35.673626 l -11.80413,0 z"
     inkscape:connector-curvature="0" />
  <g
     id="g4078"
     transform="matrix(0.11614754,0,0,0.11596864,84.661195,82.92548)"
     inkscape:export-filename="/home/atareao/Dropbox/tp/quantal/picapy/data/icons/apps/picapy.png"
     inkscape:export-xdpi="360"
     inkscape:export-ydpi="360"
     style="stroke:#000000;stroke-width:5.08788443;stroke-miterlimit:4;stroke-opacity:1;stroke-dasharray:none">
    <path
       d="m -80.822882,-65.830442 c 0,-16.359014 4.38642,-25.258997 28.607082,-29.497083 16.443785,-2.881899 37.528265,-3.242136 57.1929751,0 15.5325899,2.564042 28.6070899,14.134018 28.6070899,29.497083 l 0,53.972032 c 0,15.8292586 -12.69307,28.797799 -28.6070899,28.797799 l -57.1929751,0 c -19.410434,0 -35.769448,16.54972 -35.769448,35.26088 l 0,25.8947 -19.664722,0 c -16.63449,0 -26.31852,-11.99377 -30.38708,-28.7766 -5.48832,-22.54661 -5.25523,-35.98135 0,-57.5744054 4.55594,-18.8382946 19.11377,-28.7766086 35.74826,-28.7766086 l 21.465908,0 57.214167,0 0,-7.204747 -57.214167,0 0,-21.59305 0,0 z"
       style="fill:url(#linearGradient4082);fill-opacity:1;stroke:#000000;stroke-width:5.08788443;stroke-miterlimit:4;stroke-opacity:1;stroke-dasharray:none"
       id="path1948"
       inkscape:connector-curvature="0" />
    <path
       d="m 33.584265,106.89277 c 0,16.35902 -14.19759,24.64448 -28.6070899,28.77661 -21.6778101,6.22999 -39.0751501,5.27642 -57.1929751,0 -15.129967,-4.4076 -28.607082,-13.41354 -28.607082,-28.77661 l 0,-53.972031 c 0,-15.53258 12.947354,-28.7978 28.607082,-28.7978 l 57.1929751,0 c 19.0502099,0 35.7694499,-16.4649604 35.7694499,-35.981349 l 0,-25.174235 21.44473,0 c 16.65567,0 24.49613,12.375213 28.60708,28.7766086 5.72142,22.7797154 5.9757,39.8168254 0,57.5744054 -5.78499,17.24901 -11.97259,28.7766 -28.60708,28.7766 l -28.60709,0 -57.19298,0 0,7.20475 57.19298,0 0,21.593051 z"
       style="fill:url(#linearGradient4084);fill-opacity:1;stroke:#000000;stroke-width:5.08788443;stroke-miterlimit:4;stroke-opacity:1;stroke-dasharray:none"
       id="path1950"
       inkscape:connector-curvature="0" />
  </g>
</svg>
