<?xml version="1.0" encoding="UTF-8" standalone="no"?>
<!-- Created with Inkscape (http://www.inkscape.org/) -->

<svg
   xmlns:dc="http://purl.org/dc/elements/1.1/"
   xmlns:cc="http://creativecommons.org/ns#"
   xmlns:rdf="http://www.w3.org/1999/02/22-rdf-syntax-ns#"
   xmlns:svg="http://www.w3.org/2000/svg"
   xmlns="http://www.w3.org/2000/svg"
   xmlns:sodipodi="http://sodipodi.sourceforge.net/DTD/sodipodi-0.dtd"
   xmlns:inkscape="http://www.inkscape.org/namespaces/inkscape"
   width="30"
   height="30"
   id="svg2"
   version="1.1"
   inkscape:version="0.48.4 r9939"
   sodipodi:docname="exit_active.svg">
  <defs
     id="defs4" />
  <sodipodi:namedview
     id="base"
     pagecolor="#ffffff"
     bordercolor="#666666"
     borderopacity="1.0"
     inkscape:pageopacity="0.0"
     inkscape:pageshadow="2"
     inkscape:zoom="14.169337"
     inkscape:cx="7.2311612"
     inkscape:cy="14.745782"
     inkscape:document-units="px"
     inkscape:current-layer="layer1"
     showgrid="false"
     inkscape:window-width="1280"
     inkscape:window-height="1000"
     inkscape:window-x="0"
     inkscape:window-y="24"
     inkscape:window-maximized="1" />
  <metadata
     id="metadata7">
    <rdf:RDF>
      <cc:Work
         rdf:about="">
        <dc:format>image/svg+xml</dc:format>
        <dc:type
           rdf:resource="http://purl.org/dc/dcmitype/StillImage" />
        <dc:title></dc:title>
      </cc:Work>
    </rdf:RDF>
  </metadata>
  <g
     inkscape:label="Capa 1"
     inkscape:groupmode="layer"
     id="layer1"
     transform="translate(0,-1022.3622)">
    <path
       style="fill:#646464;fill-opacity:1"
       d="m 8.4304404,1027.3624 c -2.463979,0 -3.781883,0.016 -3.911571,0.044 -0.143702,0.03 -0.415765,0.1409 -0.605502,0.2456 -0.424174,0.2342 -0.90054,0.7709 -1.124503,1.2669 -0.299002,0.6622 -0.288823,0.3428 -0.288823,8.4453 0,8.1026 -0.01018,7.7814 0.288823,8.4437 0.308074,0.6824 0.95211,1.2811 1.599522,1.4851 0.20677,0.065 1.276923,0.076 6.8364506,0.066 l 6.591613,-0.012 0.281493,-0.1245 c 0.610018,-0.2679 1.13847,-0.8149 1.408927,-1.4578 0.239799,-0.57 0.255968,-0.7333 0.256569,-2.7146 l 0,-1.8414 -0.938308,0 -0.938308,0 0,1.4902 c 0,1.7567 -0.0247,1.9182 -0.346001,2.2627 -0.152331,0.1633 -0.269384,0.2343 -0.457425,0.2796 -0.180992,0.044 -1.937125,0.058 -6.16351,0.048 l -5.9113376,-0.015 -0.187662,-0.1177 c -0.235549,-0.1474 -0.373306,-0.3194 -0.466222,-0.578 -0.06427,-0.1789 -0.0733,-1.0131 -0.0733,-7.2706 0,-6.2574 0.009,-7.0933 0.0733,-7.2722 0.09292,-0.2587 0.230673,-0.4289 0.466222,-0.5763 l 0.187662,-0.1177 5.8878806,-0.015 c 4.209337,-0.012 5.959057,0 6.140052,0.046 0.18806,0.045 0.305088,0.1181 0.457425,0.2814 0.320435,0.3435 0.346001,0.5087 0.346001,2.2354 l 0,1.4629 0.938308,0 0.938308,0 0,-1.7529 c 0,-1.9565 -0.0225,-2.1599 -0.307883,-2.7571 -0.284206,-0.5947 -0.782452,-1.0862 -1.357614,-1.3402 l -0.281492,-0.1244 -6.49485,-0.015 c -1.074547,0 -2.0229186,0 -2.8442446,0 z m 13.2594616,3.2244 c -0.638352,0.024 -1.099507,0.8053 -0.803426,1.5397 0.05778,0.1434 0.660789,0.8833 1.757861,2.1553 l 1.671361,1.937 -4.360199,0.028 -4.358733,0.028 -0.180331,0.1687 c -0.264412,0.2487 -0.359196,0.4713 -0.359196,0.8373 0,0.3849 0.139761,0.7009 0.406111,0.9156 l 0.187662,0.1518 4.355801,0.028 4.3558,0.028 -1.669894,1.937 c -0.917858,1.0653 -1.702018,2.0106 -1.7432,2.1007 -0.09638,0.2107 -0.09734,0.7147 -0.0015,0.9276 0.105754,0.2347 0.325484,0.4604 0.535128,0.5507 0.2357,0.1011 0.543228,0.058 0.787299,-0.1105 0.307104,-0.2122 5.070077,-5.8004 5.159227,-6.053 0.09852,-0.2793 0.09333,-0.6112 -0.01466,-0.88 -0.05939,-0.1477 -0.918397,-1.1825 -2.660982,-3.2021 -2.321748,-2.6909 -2.595227,-2.9878 -2.78267,-3.0453 -0.09673,-0.029 -0.190299,-0.043 -0.281492,-0.04 z"
       id="path5075"
       inkscape:connector-curvature="0" />
  </g>
</svg>
