<?xml version="1.0" encoding="UTF-8" standalone="no"?>
<!-- Created with Inkscape (http://www.inkscape.org/) -->

<svg
   xmlns:dc="http://purl.org/dc/elements/1.1/"
   xmlns:cc="http://creativecommons.org/ns#"
   xmlns:rdf="http://www.w3.org/1999/02/22-rdf-syntax-ns#"
   xmlns:svg="http://www.w3.org/2000/svg"
   xmlns="http://www.w3.org/2000/svg"
   xmlns:sodipodi="http://sodipodi.sourceforge.net/DTD/sodipodi-0.dtd"
   xmlns:inkscape="http://www.inkscape.org/namespaces/inkscape"
   width="30"
   height="30"
   id="svg2"
   version="1.1"
   inkscape:version="0.48.4 r9939"
   sodipodi:docname="previous_active.svg">
  <defs
     id="defs4" />
  <sodipodi:namedview
     id="base"
     pagecolor="#ffffff"
     bordercolor="#666666"
     borderopacity="1.0"
     inkscape:pageopacity="0.0"
     inkscape:pageshadow="2"
     inkscape:zoom="20.038468"
     inkscape:cx="8.3491513"
     inkscape:cy="15.089007"
     inkscape:document-units="px"
     inkscape:current-layer="layer1"
     showgrid="false"
     inkscape:window-width="1280"
     inkscape:window-height="1000"
     inkscape:window-x="0"
     inkscape:window-y="24"
     inkscape:window-maximized="1" />
  <metadata
     id="metadata7">
    <rdf:RDF>
      <cc:Work
         rdf:about="">
        <dc:format>image/svg+xml</dc:format>
        <dc:type
           rdf:resource="http://purl.org/dc/dcmitype/StillImage" />
        <dc:title></dc:title>
      </cc:Work>
    </rdf:RDF>
  </metadata>
  <g
     inkscape:label="Capa 1"
     inkscape:groupmode="layer"
     id="layer1"
     transform="translate(0,-1022.3622)">
    <path
       style="fill:#ff6400;fill-opacity:1;stroke:none"
       d="M 10.045174,1046.3218 9,1045.2815 l 3.981376,-3.9597 3.981377,-3.9596 -3.964802,-3.9436 -3.964802,-3.9435 0.257012,-0.2923 c 0.141357,-0.1607 0.604583,-0.6361 1.029393,-1.0564 l 0.772378,-0.7642 4.982468,4.9557 c 3.128248,3.1115 4.960608,4.9692 4.923731,4.9919 -0.04471,0.027 -0.04469,0.053 1.01e-4,0.1065 0.04791,0.057 -0.859991,0.9862 -4.895596,5.0083 -2.724944,2.7156 -4.96745,4.9376 -4.983361,4.9376 -0.01591,0 -0.499256,-0.4682 -1.074101,-1.0404 l 0,0 z"
       id="path6253"
       inkscape:connector-curvature="0" />
  </g>
</svg>
